{"title":"Hercules in the Maze of the Minotaur (1994) DVD RIP","uid":11009616,"size":1343780537,"categoryP":"video","categoryS":"movies","magnet":"?xt=urn:btih:d90be41fdc7e3ac9494b147c8fe5cec336d93719&amp;dn=Hercules+in+the+Maze+of+the+Minotaur+%281994%29+DVD+RIP&amp;tr=udp%3A%2F%2Ftracker.openbittorrent.com%3A80&amp;tr=udp%3A%2F%2Fopen.demonii.com%3A1337&amp;tr=udp%3A%2F%2Ftracker.coppersurfer.tk%3A6969&amp;tr=udp%3A%2F%2Fexodus.desync.com%3A6969","seeders":1,"leechers":2,"uploader":"jmanwf","files":-1,"time":1410330268,"description":"Movie Info\n\nIn the last of five made-for-TV movies starring Kevin Sorbo as legendary superhero Hercules, the title character has settled down in a peaceful existence as a farmer with his beloved mortal family. Though Hercules tries hard to teach his children nonviolence, his mighty strength must come back into play when a disgruntled Minotaur begins kidnapping the local citizenry. In his efforts to defeat the monster, Hercules is reunited with his old friends Iolaus (Michael Hurst) and Deianeira (Tawny Kitaen). It ultimately falls to Hercules' Olympian father, Zeus (Anthony Quinn), to prove that the misunderstood Minotaur is not so much a villain as a victim of low self esteem. Many of the action highlights are lifted from Sorbo's four previous Hercules films. Syndicated in the U.S. beginning in late November, 1994, Hercules in the Maze of the Minotaur served as the pilot for the weekly series Hercules: The Legendary Journeys. ~ Hal Erickson, Rovi\n\n\nFormat : MPEG-4\nFormat profile : Base Media / Version 2\nCodec ID : mp42\nFile size : 1.25 GiB\nDuration : 1h 30mn\nOverall bit rate : 1 981 Kbps\nEncoded date : UTC 2014-09-08 11:23:55\nTagged date : UTC 2014-09-08 12:17:10\nWriting application : HandBrake 0.9.9 2013052900\n\nVideo\nID : 1\nFormat : AVC\nFormat/Info : Advanced Video Codec\nFormat profile : &lt;a class=&quot;__cf_email__&quot; href=&quot;/cdn-cgi/l/email-protection&quot; data-cfemail=&quot;cc84a5aba48c80f8e2fd&quot;&gt;[email&amp;#160;protected]&lt;/a&gt;&lt;script cf-hash='f9e31' type=&quot;text/javascript&quot;&gt;\n/* &lt;![CDATA[ */!function(){try{var t=&quot;currentScript&quot;in document?document.currentScript:function(){for(var t=document.getElementsByTagName(&quot;script&quot;),e=t.length;e--;)if(t[e].getAttribute(&quot;cf-hash&quot;))return t[e]}();if(t&amp;&amp;t.previousSibling){var e,r,n,i,c=t.previousSibling,a=c.getAttribute(&quot;data-cfemail&quot;);if(a){for(e=&quot;&quot;,r=parseInt(a.substr(0,2),16),n=2;a.length-n;n+=2)i=parseInt(a.substr(n,2),16)^r,e+=String.fromCharCode(i);e=document.createTextNode(e),c.parentNode.replaceChild(e,c)}}}catch(u){}}();/* ]]&gt; */&lt;/script&gt;\nFormat settings, CABAC : Yes\nFormat settings, ReFrames : 4 frames\nCodec ID : avc1\nCodec ID/Info : Advanced Video Coding\nDuration : 1h 30mn\nBit rate : 1 530 Kbps\nWidth : 720 pixels\nHeight : 490 pixels\nDisplay aspect ratio : 4:3\nOriginal display aspect ratio : 4:3\nFrame rate mode : Variable\nFrame rate : 29.360 fps\nMinimum frame rate : 19.969 fps\nMaximum frame rate : 29.970 fps\nColor space : YUV\nChroma subsampling : 4:2:0\nBit depth : 8 bits\nScan type : Progressive\nBits/(Pixel*Frame) : 0.148\nStream size : 990 MiB (77%)\nWriting library : x264 core 130 r2273 b3065e6\n\nEncoded date : UTC 2014-09-08 11:23:56\nTagged date : UTC 2014-09-08 12:17:10\nColor primaries : BT.601 NTSC\nTransfer characteristics : BT.709\nMatrix coefficients : BT.601\n\nAudio\nID : 2\nFormat : AC-3\nFormat/Info : Audio Coding 3\nMode extension : CM (complete main)\nFormat settings, Endianness : Big\nCodec ID : ac-3\nDuration : 1h 30mn\nBit rate mode : Constant\nBit rate : 448 Kbps\nChannel(s) : 6 channels\nChannel positions : Front: L C R, Side: L R, LFE\nSampling rate : 48.0 KHz\nBit depth : 16 bits\nCompression mode : Lossy\nStream size : 290 MiB (23%)\nLanguage : English\nEncoded date : UTC 2014-09-08 11:23:56\nTagged date : UTC 2014-09-08 12:17:10","torrent":{"xt":"urn:btih:d90be41fdc7e3ac9494b147c8fe5cec336d93719","amp;dn":"Hercules+in+the+Maze+of+the+Minotaur+%281994%29+DVD+RIP","amp;tr":["udp%3A%2F%2Ftracker.openbittorrent.com%3A80","udp%3A%2F%2Fopen.demonii.com%3A1337","udp%3A%2F%2Ftracker.coppersurfer.tk%3A6969","udp%3A%2F%2Fexodus.desync.com%3A6969"],"infoHash":"d90be41fdc7e3ac9494b147c8fe5cec336d93719","infoHashBuffer":{"type":"Buffer","data":[217,11,228,31,220,126,58,201,73,75,20,124,143,229,206,195,54,217,55,25]},"announce":[],"urlList":[]}}